<?xml version="1.0" encoding="UTF-8" standalone="no"?>
<svg
   xmlns:osb="http://www.openswatchbook.org/uri/2009/osb"
   xmlns:dc="http://purl.org/dc/elements/1.1/"
   xmlns:cc="http://creativecommons.org/ns#"
   xmlns:rdf="http://www.w3.org/1999/02/22-rdf-syntax-ns#"
   xmlns:svg="http://www.w3.org/2000/svg"
   xmlns="http://www.w3.org/2000/svg"
   xmlns:xlink="http://www.w3.org/1999/xlink"
   xmlns:sodipodi="http://sodipodi.sourceforge.net/DTD/sodipodi-0.dtd"
   xmlns:inkscape="http://www.inkscape.org/namespaces/inkscape"
   version="1.1"
   id="svg2"
   height="137"
   width="185"
   inkscape:version="0.91 r13725"
   sodipodi:docname="mrt.svg">
  <sodipodi:namedview
     pagecolor="#ffffff"
     bordercolor="#666666"
     borderopacity="1"
     objecttolerance="10"
     gridtolerance="10"
     guidetolerance="10"
     inkscape:pageopacity="0"
     inkscape:pageshadow="2"
     inkscape:window-width="1920"
     inkscape:window-height="1055"
     id="namedview309"
     showgrid="false"
     inkscape:zoom="1.3459459"
     inkscape:cx="15.76389"
     inkscape:cy="59.282162"
     inkscape:window-x="0"
     inkscape:window-y="0"
     inkscape:window-maximized="1"
     inkscape:current-layer="svg2" />
  <defs
     id="defs4">
    <linearGradient
       id="linearGradient6828">
      <stop
         style="stop-color:#f8c300;stop-opacity:1"
         offset="0%"
         stop-color="#ffcc00"
         stop-opacity="1.0000"
         id="stop6830" />
      <stop
         offset="100%"
         stop-color="#ffffff"
         stop-opacity="1.0000"
         id="stop6832" />
    </linearGradient>
    <linearGradient
       id="linearGradient6820">
      <stop
         style="stop-color:#ffffff;stop-opacity:1"
         offset="0%"
         stop-color="#ffcc00"
         stop-opacity="1.0000"
         id="stop6822" />
      <stop
         style="stop-color:#f8c300;stop-opacity:1"
         offset="100%"
         stop-color="#ffffff"
         stop-opacity="1.0000"
         id="stop6824" />
    </linearGradient>
    <linearGradient
       id="linearGradient5184"
       spreadMethod="pad"
       gradientUnits="userSpaceOnUse"
       y2="-4"
       x2="94"
       y1="239"
       x1="81"
       osb:paint="gradient">
      <stop
         id="stop5186"
         offset="0"
         style="stop-opacity:1;stop-color:#ffffff" />
      <stop
         id="stop5188"
         offset="1"
         style="stop-opacity:1;stop-color:#f8c300" />
    </linearGradient>
    <linearGradient
       id="linearGradient5160"
       spreadMethod="pad"
       gradientUnits="userSpaceOnUse"
       y2="-4"
       x2="94"
       y1="239"
       x1="81"
       osb:paint="gradient">
      <stop
         id="stop5162"
         offset="0"
         style="stop-opacity:1;stop-color:#f8c300" />
      <stop
         id="stop5164"
         offset="1"
         style="stop-opacity:1;stop-color:#ffffff" />
    </linearGradient>
    <linearGradient
       id="linearGradient5136"
       spreadMethod="pad"
       gradientUnits="userSpaceOnUse"
       y2="-4"
       x2="94"
       y1="239"
       x1="81">
      <stop
         id="stop5138"
         offset="0"
         style="stop-opacity:1;stop-color:#ffcc00" />
      <stop
         id="stop5140"
         offset="1"
         style="stop-opacity:1;stop-color:#141eee" />
    </linearGradient>
    <linearGradient
       osb:paint="gradient"
       x1="81"
       y1="239"
       x2="94"
       y2="-4"
       gradientUnits="userSpaceOnUse"
       spreadMethod="pad"
       id="linearGradient80">
      <stop
         style="stop-opacity:1;stop-color:#ffcc00"
         offset="0"
         id="stop5130" />
      <stop
         style="stop-opacity:1;stop-color:#ffffff"
         offset="1"
         id="stop5132" />
    </linearGradient>
    <clipPath
       id="clipPath68"
       clipPathUnits="userSpaceOnUse">
      <path
         style="clip-rule:evenodd"
         id="path70"
         d="M 668.8,445.6 532,176.3 l -34.8,-23.5 154,302.9 17.6,-10.1 z" />
    </clipPath>
    <clipPath
       id="clipPath76"
       clipPathUnits="userSpaceOnUse">
      <path
         id="path78"
         d="m 0,0 171.6,0 0,302.9 L 0,302.9 0,0 Z" />
    </clipPath>
    <linearGradient
       id="linearGradient5134"
       spreadMethod="pad"
       gradientUnits="userSpaceOnUse"
       y2="-4"
       x2="94"
       y1="239"
       x1="81">
      <stop
         id="stop82"
         offset="0"
         style="stop-opacity:1;stop-color:#ffcc00" />
      <stop
         id="stop84"
         offset="1"
         style="stop-opacity:1;stop-color:#ffffff" />
    </linearGradient>
    <clipPath
       id="clipPath44"
       clipPathUnits="userSpaceOnUse">
      <path
         style="clip-rule:evenodd"
         id="path46"
         d="M 401,237 537.8,506.3 572.5,529.8 418.5,227 401,237 Z" />
    </clipPath>
    <clipPath
       id="clipPath52"
       clipPathUnits="userSpaceOnUse">
      <path
         id="path54"
         d="m 0,0 171.6,0 0,302.9 L 0,302.9 0,0 Z" />
    </clipPath>
    <linearGradient
       gradientUnits="userSpaceOnUse"
       gradientTransform="matrix(0.7523468,0,0,-1.3279798,-829.99503,-8.2641803)"
       y2="332.76794"
       x2="660.59967"
       y1="104.81455"
       x1="660.59967"
       id="grad4"
       xlink:href="#grad3" />
    <linearGradient
       id="grad3">
      <stop
         id="stop69"
         stop-opacity="1.0000"
         stop-color="#ffcc00"
         offset="0%" />
      <stop
         id="stop71"
         stop-opacity="1.0000"
         stop-color="#ffffff"
         offset="100%" />
    </linearGradient>
    <linearGradient
       gradientUnits="userSpaceOnUse"
       gradientTransform="matrix(0.75234683,0,0,-1.3279799,-999.92095,122.45355)"
       y2="277.02951"
       x2="532.70477"
       y1="49.076118"
       x1="532.70477"
       id="grad2"
       xlink:href="#grad3" />
    <linearGradient
       gradientUnits="userSpaceOnUse"
       gradientTransform="matrix(0.27212143,0,0,0.48032607,174.62717,338.0833)"
       y2="241.89825"
       x2="696.72528"
       y1="103.4608"
       x1="696.72528"
       id="grad2-3"
       xlink:href="#linearGradient6828" />
    <linearGradient
       gradientUnits="userSpaceOnUse"
       gradientTransform="matrix(0.27212142,0,0,0.48032603,174.47843,338.32999)"
       y2="277.86826"
       x2="725.08582"
       y1="139.43259"
       x1="725.08582"
       id="grad4-5"
       xlink:href="#linearGradient6820" />
    <linearGradient
       gradientUnits="userSpaceOnUse"
       gradientTransform="matrix(0.27212142,0,0,0.48032603,514.04322,447.19484)"
       y2="277.86826"
       x2="725.08582"
       y1="139.43259"
       x1="725.08582"
       id="grad4-5-6"
       xlink:href="#linearGradient6820" />
    <linearGradient
       gradientUnits="userSpaceOnUse"
       gradientTransform="matrix(0.27212143,0,0,0.48032607,514.19196,446.94815)"
       y2="241.89825"
       x2="696.72528"
       y1="103.4608"
       x1="696.72528"
       id="grad2-3-1"
       xlink:href="#linearGradient6828" />
  </defs>
  <metadata
     id="metadata7">
    <rdf:RDF>
      <cc:Work
         rdf:about="">
        <dc:format>image/svg+xml</dc:format>
        <dc:type
           rdf:resource="http://purl.org/dc/dcmitype/StillImage" />
        <dc:title />
      </cc:Work>
    </rdf:RDF>
  </metadata>
  <g
     transform="translate(-49.0625,0.48873901)"
     style="display:none"
     id="layer2">
    <path
       d="m 332.18467,479.70345 4.7124,0 0,-1.59618 -4.7124,0 0,1.59618 z"
       style="fill:#1f1a17;fill-opacity:1;fill-rule:nonzero;stroke:none"
       id="path2860-5"
       transform="translate(-206.224,-362.14458)" />
    <path
       d="m 388.3423,388.26696 -8.2425,0 8.97,-17.64613 12.54875,-8.47625 -13.27625,26.12238 z"
       style="fill:#f8c300;fill-opacity:1;fill-rule:nonzero;stroke:none"
       id="path2906"
       transform="translate(-206.224,-362.14458)" />
    <path
       d="m 380.0998,388.26696 8.2425,0 -0.26375,0.51762 -8.2375,0 0.25875,-0.51762 z"
       style="fill:#f8c300;fill-opacity:1;fill-rule:nonzero;stroke:none"
       id="path2908"
       transform="translate(-206.224,-362.14458)" />
    <path
       d="m 379.84105,388.78458 8.2375,0 -0.26375,0.5225 -8.2425,0 0.26875,-0.5225 z"
       style="fill:#f8c300;fill-opacity:1;fill-rule:nonzero;stroke:none"
       id="path2910"
       transform="translate(-206.224,-362.14458)" />
    <path
       d="m 379.5723,389.30708 8.2425,0 -0.26375,0.519 -8.2375,0 0.25875,-0.519 z"
       style="fill:#f8c300;fill-opacity:1;fill-rule:nonzero;stroke:none"
       id="path2912"
       transform="translate(-206.224,-362.14458)" />
    <path
       d="m 379.31355,389.82608 8.2375,0 -0.26375,0.51712 -8.24125,0 0.2675,-0.51712 z"
       style="fill:#f8c300;fill-opacity:1;fill-rule:nonzero;stroke:none"
       id="path2914"
       transform="translate(-206.224,-362.14458)" />
    <path
       d="m 379.04605,390.3432 8.24125,0 -0.26375,0.52238 -8.24125,0 0.26375,-0.52238 z"
       style="fill:#f9c600;fill-opacity:1;fill-rule:nonzero;stroke:none"
       id="path2916"
       transform="translate(-206.224,-362.14458)" />
    <path
       d="m 378.7823,390.86558 8.24125,0 -0.26375,0.51763 -8.24125,0 0.26375,-0.51763 z"
       style="fill:#f9c600;fill-opacity:1;fill-rule:nonzero;stroke:none"
       id="path2918"
       transform="translate(-206.224,-362.14458)" />
    <path
       d="m 378.51855,391.38321 8.24125,0 -0.2675,0.52249 -8.2375,0 0.26375,-0.52249 z"
       style="fill:#f9c600;fill-opacity:1;fill-rule:nonzero;stroke:none"
       id="path2920"
       transform="translate(-206.224,-362.14458)" />
    <path
       d="m 378.2548,391.9057 8.2375,0 -0.25875,0.51751 -8.2425,0 0.26375,-0.51751 z"
       style="fill:#f9c600;fill-opacity:1;fill-rule:nonzero;stroke:none"
       id="path2922"
       transform="translate(-206.224,-362.14458)" />
    <path
       d="m 377.99105,392.42321 8.2425,0 -0.26875,0.51762 -8.2375,0 0.26375,-0.51762 z"
       style="fill:#f9c600;fill-opacity:1;fill-rule:nonzero;stroke:none"
       id="path2924"
       transform="translate(-206.224,-362.14458)" />
    <path
       d="m 377.7273,392.94083 8.2375,0 -0.26375,0.5225 -8.2375,0 0.26375,-0.5225 z"
       style="fill:#f9c800;fill-opacity:1;fill-rule:nonzero;stroke:none"
       id="path2926"
       transform="translate(-206.224,-362.14458)" />
    <path
       d="m 377.46355,393.46333 8.2375,0 -0.26375,0.5175 -8.2375,0 0.26375,-0.5175 z"
       style="fill:#f9c800;fill-opacity:1;fill-rule:nonzero;stroke:none"
       id="path2928"
       transform="translate(-206.224,-362.14458)" />
    <path
       d="m 377.1998,393.98083 8.2375,0 -0.26375,0.5225 -8.2375,0 0.26375,-0.5225 z"
       style="fill:#f9c80f;fill-opacity:1;fill-rule:nonzero;stroke:none"
       id="path2930"
       transform="translate(-206.224,-362.14458)" />
    <path
       d="m 376.93605,394.50333 8.2375,0 -0.26375,0.5175 -8.2375,0 0.26375,-0.5175 z"
       style="fill:#f9c80f;fill-opacity:1;fill-rule:nonzero;stroke:none"
       id="path2932"
       transform="translate(-206.224,-362.14458)" />
    <path
       d="m 376.6723,395.02083 8.2375,0 -0.26375,0.51763 -8.2375,0 0.26375,-0.51763 z"
       style="fill:#f9c818;fill-opacity:1;fill-rule:nonzero;stroke:none"
       id="path2934"
       transform="translate(-206.224,-362.14458)" />
    <path
       d="m 376.40855,395.53846 8.2375,0 -0.26375,0.5225 -8.2375,0 0.26375,-0.5225 z"
       style="fill:#f9c822;fill-opacity:1;fill-rule:nonzero;stroke:none"
       id="path2936"
       transform="translate(-206.224,-362.14458)" />
    <path
       d="m 376.1448,396.06096 8.2375,0 -0.26375,0.5175 -8.2425,0 0.26875,-0.5175 z"
       style="fill:#f9c82a;fill-opacity:1;fill-rule:nonzero;stroke:none"
       id="path2938"
       transform="translate(-206.224,-362.14458)" />
    <path
       d="m 375.87605,396.57846 8.2425,0 -0.26375,0.5225 -8.2375,0 0.25875,-0.5225 z"
       style="fill:#f9c82e;fill-opacity:1;fill-rule:nonzero;stroke:none"
       id="path2940"
       transform="translate(-206.224,-362.14458)" />
    <path
       d="m 375.6173,397.10096 8.2375,0 -0.26875,0.51762 -8.23625,0 0.2675,-0.51762 z"
       style="fill:#f9cb2d;fill-opacity:1;fill-rule:nonzero;stroke:none"
       id="path2942"
       transform="translate(-206.224,-362.14458)" />
    <path
       d="m 375.3498,397.61858 8.23625,0 -0.25875,0.517 -8.24125,0 0.26375,-0.517 z"
       style="fill:#f9cb33;fill-opacity:1;fill-rule:nonzero;stroke:none"
       id="path2944"
       transform="translate(-206.224,-362.14458)" />
    <path
       d="m 375.08605,398.13558 8.24125,0 -0.2675,0.5225 -8.2375,0 0.26375,-0.5225 z"
       style="fill:#f9cb36;fill-opacity:1;fill-rule:nonzero;stroke:none"
       id="path2946"
       transform="translate(-206.224,-362.14458)" />
    <path
       d="m 374.8223,398.65808 8.2375,0 -0.26,0.51763 -8.24125,0 0.26375,-0.51763 z"
       style="fill:#f9cb3b;fill-opacity:1;fill-rule:nonzero;stroke:none"
       id="path2948"
       transform="translate(-206.224,-362.14458)" />
    <path
       d="m 374.55855,399.17571 8.24125,0 -0.2675,0.5175 -8.2375,0 0.26375,-0.5175 z"
       style="fill:#f9cb3b;fill-opacity:1;fill-rule:nonzero;stroke:none"
       id="path2950"
       transform="translate(-206.224,-362.14458)" />
    <path
       d="m 374.2948,399.69321 8.2375,0 -0.26375,0.5225 -8.2375,0 0.26375,-0.5225 z"
       style="fill:#f9cd3d;fill-opacity:1;fill-rule:nonzero;stroke:none"
       id="path2952"
       transform="translate(-206.224,-362.14458)" />
    <path
       d="m 374.03105,400.21571 8.2375,0 -0.26375,0.51762 -8.2375,0 0.26375,-0.51762 z"
       style="fill:#f9cd41;fill-opacity:1;fill-rule:nonzero;stroke:none"
       id="path2954"
       transform="translate(-206.224,-362.14458)" />
    <path
       d="m 373.7673,400.73333 8.2375,0 -0.26375,0.52238 -8.2425,0 0.26875,-0.52238 z"
       style="fill:#f9cd43;fill-opacity:1;fill-rule:nonzero;stroke:none"
       id="path2956"
       transform="translate(-206.224,-362.14458)" />
    <path
       d="m 373.49855,401.25571 8.2425,0 -0.26375,0.51762 -8.2375,0 0.25875,-0.51762 z"
       style="fill:#f9cd47;fill-opacity:1;fill-rule:nonzero;stroke:none"
       id="path2958"
       transform="translate(-206.224,-362.14458)" />
    <path
       d="m 373.2398,401.77333 8.2375,0 -0.26375,0.51763 -8.2425,0 0.26875,-0.51763 z"
       style="fill:#f9cd47;fill-opacity:1;fill-rule:nonzero;stroke:none"
       id="path2960"
       transform="translate(-206.224,-362.14458)" />
    <path
       d="m 372.97105,402.29096 8.2425,0 -0.26375,0.52237 -8.2375,0 0.25875,-0.52237 z"
       style="fill:#f9cd4b;fill-opacity:1;fill-rule:nonzero;stroke:none"
       id="path2962"
       transform="translate(-206.224,-362.14458)" />
    <path
       d="m 372.7123,402.81333 8.2375,0 -0.26375,0.51762 -8.2425,0 0.26875,-0.51762 z"
       style="fill:#f9cd4d;fill-opacity:1;fill-rule:nonzero;stroke:none"
       id="path2964"
       transform="translate(-206.224,-362.14458)" />
    <path
       d="m 372.44355,403.33095 8.2425,0 -0.26375,0.52251 -8.2375,0 0.25875,-0.52251 z"
       style="fill:#f9d050;fill-opacity:1;fill-rule:nonzero;stroke:none"
       id="path2966"
       transform="translate(-206.224,-362.14458)" />
    <path
       d="m 372.1848,403.85346 8.2375,0 -0.26375,0.5175 -8.2425,0 0.26875,-0.5175 z"
       style="fill:#f9d052;fill-opacity:1;fill-rule:nonzero;stroke:none"
       id="path2968"
       transform="translate(-206.224,-362.14458)" />
    <path
       d="m 371.91605,404.37096 8.2425,0 -0.26375,0.51762 -8.2425,0 0.26375,-0.51762 z"
       style="fill:#f9d052;fill-opacity:1;fill-rule:nonzero;stroke:none"
       id="path2970"
       transform="translate(-206.224,-362.14458)" />
    <path
       d="m 371.6523,404.88858 8.2425,0 -0.26375,0.5225 -8.24125,0 0.2625,-0.5225 z"
       style="fill:#f9d055;fill-opacity:1;fill-rule:nonzero;stroke:none"
       id="path2972"
       transform="translate(-206.224,-362.14458)" />
    <path
       d="m 371.3898,405.41108 8.24125,0 -0.26875,0.517 -8.23625,0 0.26375,-0.517 z"
       style="fill:#f9d057;fill-opacity:1;fill-rule:nonzero;stroke:none"
       id="path2974"
       transform="translate(-206.224,-362.14458)" />
    <path
       d="m 371.12605,405.92808 8.23625,0 -0.25875,0.51763 -8.24125,0 0.26375,-0.51763 z"
       style="fill:#f9d059;fill-opacity:1;fill-rule:nonzero;stroke:none"
       id="path2976"
       transform="translate(-206.224,-362.14458)" />
    <path
       d="m 370.8623,406.44571 8.24125,0 -0.2675,0.52249 -8.2375,0 0.26375,-0.52249 z"
       style="fill:#f9d059;fill-opacity:1;fill-rule:nonzero;stroke:none"
       id="path2978"
       transform="translate(-206.224,-362.14458)" />
    <path
       d="m 370.59855,406.9682 8.2375,0 -0.25875,0.51751 -8.2425,0 0.26375,-0.51751 z"
       style="fill:#f9d05b;fill-opacity:1;fill-rule:nonzero;stroke:none"
       id="path2980"
       transform="translate(-206.224,-362.14458)" />
    <path
       d="m 370.3348,407.48571 8.2425,0 -0.26875,0.5225 -8.2375,0 0.26375,-0.5225 z"
       style="fill:#f9d25e;fill-opacity:1;fill-rule:nonzero;stroke:none"
       id="path2982"
       transform="translate(-206.224,-362.14458)" />
    <path
       d="m 370.07105,408.00821 8.2375,0 -0.26375,0.51762 -8.2375,0 0.26375,-0.51762 z"
       style="fill:#f9d25f;fill-opacity:1;fill-rule:nonzero;stroke:none"
       id="path2984"
       transform="translate(-206.224,-362.14458)" />
    <path
       d="m 369.8073,408.52583 8.2375,0 -0.26375,0.519 -8.2375,0 0.26375,-0.519 z"
       style="fill:#f9d262;fill-opacity:1;fill-rule:nonzero;stroke:none"
       id="path2986"
       transform="translate(-206.224,-362.14458)" />
    <path
       d="m 369.54355,409.04483 8.2375,0 -0.26375,0.521 -8.2425,0 0.26875,-0.521 z"
       style="fill:#f9d262;fill-opacity:1;fill-rule:nonzero;stroke:none"
       id="path2988"
       transform="translate(-206.224,-362.14458)" />
    <path
       d="m 369.2748,409.56583 8.2425,0 -0.26375,0.5185 -8.2375,0 0.25875,-0.5185 z"
       style="fill:#f9d264;fill-opacity:1;fill-rule:nonzero;stroke:none"
       id="path2990"
       transform="translate(-206.224,-362.14458)" />
    <path
       d="m 369.01605,410.08433 8.2375,0 -0.26375,0.523 -8.2425,0 0.26875,-0.523 z"
       style="fill:#fad566;fill-opacity:1;fill-rule:nonzero;stroke:none"
       id="path2992"
       transform="translate(-206.224,-362.14458)" />
    <path
       d="m 368.7473,410.60733 8.2425,0 -0.26375,0.51712 -8.2425,0 0.26375,-0.51712 z"
       style="fill:#fad568;fill-opacity:1;fill-rule:nonzero;stroke:none"
       id="path2994"
       transform="translate(-206.224,-362.14458)" />
    <path
       d="m 368.48355,411.12445 8.2425,0 -0.26875,0.51751 -8.2375,0 0.26375,-0.51751 z"
       style="fill:#fad569;fill-opacity:1;fill-rule:nonzero;stroke:none"
       id="path2996"
       transform="translate(-206.224,-362.14458)" />
    <path
       d="m 368.2198,411.64196 8.2375,0 -0.25875,0.5225 -8.2425,0 0.26375,-0.5225 z"
       style="fill:#fad569;fill-opacity:1;fill-rule:nonzero;stroke:none"
       id="path2998"
       transform="translate(-206.224,-362.14458)" />
    <path
       d="m 367.95605,412.16446 8.2425,0 -0.26875,0.51762 -8.23625,0 0.2625,-0.51762 z"
       style="fill:#fad56b;fill-opacity:1;fill-rule:nonzero;stroke:none"
       id="path3000"
       transform="translate(-206.224,-362.14458)" />
    <path
       d="m 367.69355,412.68208 8.23625,0 -0.25875,0.52238 -8.24125,0 0.26375,-0.52238 z"
       style="fill:#fad56d;fill-opacity:1;fill-rule:nonzero;stroke:none"
       id="path3002"
       transform="translate(-206.224,-362.14458)" />
    <path
       d="m 367.4298,413.20446 8.24125,0 -0.26875,0.51762 -8.23625,0 0.26375,-0.51762 z"
       style="fill:#f9d56f;fill-opacity:1;fill-rule:nonzero;stroke:none"
       id="path3004"
       transform="translate(-206.224,-362.14458)" />
    <path
       d="m 367.16605,413.72208 8.23625,0 -0.2625,0.5175 -8.2375,0 0.26375,-0.5175 z"
       style="fill:#fad76f;fill-opacity:1;fill-rule:nonzero;stroke:none"
       id="path3006"
       transform="translate(-206.224,-362.14458)" />
    <path
       d="m 366.9023,414.23958 8.2375,0 -0.26375,0.5225 -8.2375,0 0.26375,-0.5225 z"
       style="fill:#fad770;fill-opacity:1;fill-rule:nonzero;stroke:none"
       id="path3008"
       transform="translate(-206.224,-362.14458)" />
    <path
       d="m 366.63855,414.76208 8.2375,0 -0.26375,0.51763 -8.2425,0 0.26875,-0.51763 z"
       style="fill:#fad772;fill-opacity:1;fill-rule:nonzero;stroke:none"
       id="path3010"
       transform="translate(-206.224,-362.14458)" />
    <path
       d="m 366.3698,415.27971 8.2425,0 -0.26375,0.52237 -8.2375,0 0.25875,-0.52237 z"
       style="fill:#fad775;fill-opacity:1;fill-rule:nonzero;stroke:none"
       id="path3012"
       transform="translate(-206.224,-362.14458)" />
    <path
       d="m 366.11105,415.80208 8.2375,0 -0.26375,0.51763 -8.2425,0 0.26875,-0.51763 z"
       style="fill:#fad776;fill-opacity:1;fill-rule:nonzero;stroke:none"
       id="path3014"
       transform="translate(-206.224,-362.14458)" />
    <path
       d="m 365.8423,416.31971 8.2425,0 -0.26375,0.51762 -8.2375,0 0.25875,-0.51762 z"
       style="fill:#fadb76;fill-opacity:1;fill-rule:nonzero;stroke:none"
       id="path3016"
       transform="translate(-206.224,-362.14458)" />
    <path
       d="m 365.58355,416.83733 8.2375,0 -0.26375,0.52237 -8.2425,0 0.26875,-0.52237 z"
       style="fill:#fadb79;fill-opacity:1;fill-rule:nonzero;stroke:none"
       id="path3018"
       transform="translate(-206.224,-362.14458)" />
    <path
       d="m 365.3148,417.35971 8.2425,0 -0.26375,0.51712 -8.2425,0 0.26375,-0.51712 z"
       style="fill:#fadb7a;fill-opacity:1;fill-rule:nonzero;stroke:none"
       id="path3020"
       transform="translate(-206.224,-362.14458)" />
    <path
       d="m 365.05105,417.87683 8.2425,0 -0.26375,0.51763 -8.2425,0 0.26375,-0.51763 z"
       style="fill:#fadb7c;fill-opacity:1;fill-rule:nonzero;stroke:none"
       id="path3022"
       transform="translate(-206.224,-362.14458)" />
    <path
       d="m 364.7873,418.39446 8.2425,0 -0.26375,0.52237 -8.2425,0 0.26375,-0.52237 z"
       style="fill:#fadb7c;fill-opacity:1;fill-rule:nonzero;stroke:none"
       id="path3024"
       transform="translate(-206.224,-362.14458)" />
    <path
       d="m 364.52355,418.91683 8.2425,0 -0.26375,0.51763 -8.2425,0 0.26375,-0.51763 z"
       style="fill:#fadb7d;fill-opacity:1;fill-rule:nonzero;stroke:none"
       id="path3026"
       transform="translate(-206.224,-362.14458)" />
    <path
       d="m 364.2598,419.43446 8.2425,0 -0.26875,0.5225 -8.23625,0 0.2625,-0.5225 z"
       style="fill:#fadb7f;fill-opacity:1;fill-rule:nonzero;stroke:none"
       id="path3028"
       transform="translate(-206.224,-362.14458)" />
    <path
       d="m 363.9973,419.95696 8.23625,0 -0.25875,0.5175 -8.24125,0 0.26375,-0.5175 z"
       style="fill:#fadb81;fill-opacity:1;fill-rule:nonzero;stroke:none"
       id="path3030"
       transform="translate(-206.224,-362.14458)" />
    <path
       d="m 363.73355,420.47446 8.24125,0 -0.26875,0.51762 -8.23625,0 0.26375,-0.51762 z"
       style="fill:#fadd84;fill-opacity:1;fill-rule:nonzero;stroke:none"
       id="path3032"
       transform="translate(-206.224,-362.14458)" />
    <path
       d="m 363.4698,420.99208 8.23625,0 -0.25875,0.5225 -8.24125,0 0.26375,-0.5225 z"
       style="fill:#fadd84;fill-opacity:1;fill-rule:nonzero;stroke:none"
       id="path3034"
       transform="translate(-206.224,-362.14458)" />
    <path
       d="m 363.20605,421.51458 8.24125,0 -0.2675,0.5175 -8.2375,0 0.26375,-0.5175 z"
       style="fill:#fadd87;fill-opacity:1;fill-rule:nonzero;stroke:none"
       id="path3036"
       transform="translate(-206.224,-362.14458)" />
    <path
       d="m 362.9423,422.03208 8.2375,0 -0.26375,0.5225 -8.2375,0 0.26375,-0.5225 z"
       style="fill:#fadd87;fill-opacity:1;fill-rule:nonzero;stroke:none"
       id="path3038"
       transform="translate(-206.224,-362.14458)" />
    <path
       d="m 362.67855,422.55458 8.2375,0 -0.26375,0.51763 -8.2375,0 0.26375,-0.51763 z"
       style="fill:#fbe18a;fill-opacity:1;fill-rule:nonzero;stroke:none"
       id="path3040"
       transform="translate(-206.224,-362.14458)" />
    <path
       d="m 362.4148,423.07221 8.2375,0 -0.26375,0.5175 -8.2425,0 0.26875,-0.5175 z"
       style="fill:#fbe18b;fill-opacity:1;fill-rule:nonzero;stroke:none"
       id="path3042"
       transform="translate(-206.224,-362.14458)" />
    <path
       d="m 362.14605,423.58971 8.2425,0 -0.26375,0.52249 -8.2375,0 0.25875,-0.52249 z"
       style="fill:#fbe18d;fill-opacity:1;fill-rule:nonzero;stroke:none"
       id="path3044"
       transform="translate(-206.224,-362.14458)" />
    <path
       d="m 361.8873,424.1122 8.2375,0 -0.26875,0.51763 -8.2375,0 0.26875,-0.51763 z"
       style="fill:#fbe18f;fill-opacity:1;fill-rule:nonzero;stroke:none"
       id="path3046"
       transform="translate(-206.224,-362.14458)" />
    <path
       d="m 361.61855,424.62983 8.2375,0 -0.25875,0.517 -8.2425,0 0.26375,-0.517 z"
       style="fill:#fbe18f;fill-opacity:1;fill-rule:nonzero;stroke:none"
       id="path3048"
       transform="translate(-206.224,-362.14458)" />
    <path
       d="m 361.3548,425.14683 8.2425,0 -0.26875,0.523 -8.2375,0 0.26375,-0.523 z"
       style="fill:#fbe191;fill-opacity:1;fill-rule:nonzero;stroke:none"
       id="path3050"
       transform="translate(-206.224,-362.14458)" />
    <path
       d="m 361.09105,425.66983 8.2375,0 -0.25875,0.51712 -8.2425,0 0.26375,-0.51712 z"
       style="fill:#fbe192;fill-opacity:1;fill-rule:nonzero;stroke:none"
       id="path3052"
       transform="translate(-206.224,-362.14458)" />
    <path
       d="m 360.8273,426.18695 8.2425,0 -0.26875,0.52238 -8.2375,0 0.26375,-0.52238 z"
       style="fill:#fbe194;fill-opacity:1;fill-rule:nonzero;stroke:none"
       id="path3054"
       transform="translate(-206.224,-362.14458)" />
    <path
       d="m 360.56355,426.70933 8.2375,0 -0.25875,0.51763 -8.2425,0 0.26375,-0.51763 z"
       style="fill:#fbe495;fill-opacity:1;fill-rule:nonzero;stroke:none"
       id="path3056"
       transform="translate(-206.224,-362.14458)" />
    <path
       d="m 360.2998,427.22696 8.2425,0 -0.26875,0.51762 -8.23625,0 0.2625,-0.51762 z"
       style="fill:#fbe496;fill-opacity:1;fill-rule:nonzero;stroke:none"
       id="path3058"
       transform="translate(-206.224,-362.14458)" />
    <path
       d="m 360.0373,427.74458 8.23625,0 -0.26375,0.52238 -8.24125,0 0.26875,-0.52238 z"
       style="fill:#fbe498;fill-opacity:1;fill-rule:nonzero;stroke:none"
       id="path3060"
       transform="translate(-206.224,-362.14458)" />
    <path
       d="m 359.76855,428.26696 8.24125,0 -0.2625,0.51762 -8.2375,0 0.25875,-0.51762 z"
       style="fill:#fbe49b;fill-opacity:1;fill-rule:nonzero;stroke:none"
       id="path3062"
       transform="translate(-206.224,-362.14458)" />
    <path
       d="m 359.5098,428.78458 8.2375,0 -0.26375,0.5225 -8.2425,0 0.26875,-0.5225 z"
       style="fill:#fbe49c;fill-opacity:1;fill-rule:nonzero;stroke:none"
       id="path3064"
       transform="translate(-206.224,-362.14458)" />
    <path
       d="m 359.24105,429.30708 8.2425,0 -0.26375,0.519 -8.2375,0 0.25875,-0.519 z"
       style="fill:#fce79d;fill-opacity:1;fill-rule:nonzero;stroke:none"
       id="path3066"
       transform="translate(-206.224,-362.14458)" />
    <path
       d="m 358.9823,429.82608 8.2375,0 -0.26375,0.51712 -8.2425,0 0.26875,-0.51712 z"
       style="fill:#fce79f;fill-opacity:1;fill-rule:nonzero;stroke:none"
       id="path3068"
       transform="translate(-206.224,-362.14458)" />
    <path
       d="m 358.71355,430.3432 8.2425,0 -0.26375,0.52238 -8.2375,0 0.25875,-0.52238 z"
       style="fill:#fce7a1;fill-opacity:1;fill-rule:nonzero;stroke:none"
       id="path3070"
       transform="translate(-206.224,-362.14458)" />
    <path
       d="m 358.4548,430.86558 8.2375,0 -0.26375,0.51763 -8.2425,0 0.26875,-0.51763 z"
       style="fill:#fce7a3;fill-opacity:1;fill-rule:nonzero;stroke:none"
       id="path3072"
       transform="translate(-206.224,-362.14458)" />
    <path
       d="m 358.18605,431.38321 8.2425,0 -0.26375,0.52249 -8.2425,0 0.26375,-0.52249 z"
       style="fill:#fce7a3;fill-opacity:1;fill-rule:nonzero;stroke:none"
       id="path3074"
       transform="translate(-206.224,-362.14458)" />
    <path
       d="m 357.9223,431.9057 8.2425,0 -0.26375,0.51751 -8.2425,0 0.26375,-0.51751 z"
       style="fill:#fce7a4;fill-opacity:1;fill-rule:nonzero;stroke:none"
       id="path3076"
       transform="translate(-206.224,-362.14458)" />
    <path
       d="m 357.65855,432.42321 8.2425,0 -0.26875,0.51762 -8.2375,0 0.26375,-0.51762 z"
       style="fill:#fce7a7;fill-opacity:1;fill-rule:nonzero;stroke:none"
       id="path3078"
       transform="translate(-206.224,-362.14458)" />
    <path
       d="m 357.3948,432.94083 8.2375,0 -0.25875,0.5225 -8.2425,0 0.26375,-0.5225 z"
       style="fill:#fceba9;fill-opacity:1;fill-rule:nonzero;stroke:none"
       id="path3080"
       transform="translate(-206.224,-362.14458)" />
    <path
       d="m 357.13105,433.46333 8.2425,0 -0.26875,0.5175 -8.2375,0 0.26375,-0.5175 z"
       style="fill:#fcebab;fill-opacity:1;fill-rule:nonzero;stroke:none"
       id="path3082"
       transform="translate(-206.224,-362.14458)" />
    <path
       d="m 356.8673,433.98083 8.2375,0 -0.25875,0.5225 -8.2425,0 0.26375,-0.5225 z"
       style="fill:#fcebab;fill-opacity:1;fill-rule:nonzero;stroke:none"
       id="path3084"
       transform="translate(-206.224,-362.14458)" />
    <path
       d="m 356.60355,434.50333 8.2425,0 -0.26875,0.5175 -8.2375,0 0.26375,-0.5175 z"
       style="fill:#fcebad;fill-opacity:1;fill-rule:nonzero;stroke:none"
       id="path3086"
       transform="translate(-206.224,-362.14458)" />
    <path
       d="m 356.3398,435.02083 8.2375,0 -0.25875,0.51763 -8.24125,0 0.2625,-0.51763 z"
       style="fill:#fdebaf;fill-opacity:1;fill-rule:nonzero;stroke:none"
       id="path3088"
       transform="translate(-206.224,-362.14458)" />
    <path
       d="m 356.0773,435.53846 8.24125,0 -0.26875,0.5225 -8.23625,0 0.26375,-0.5225 z"
       style="fill:#fdedb2;fill-opacity:1;fill-rule:nonzero;stroke:none"
       id="path3090"
       transform="translate(-206.224,-362.14458)" />
    <path
       d="m 355.81355,436.06096 8.23625,0 -0.2625,0.5175 -8.2425,0 0.26875,-0.5175 z"
       style="fill:#fdedb4;fill-opacity:1;fill-rule:nonzero;stroke:none"
       id="path3092"
       transform="translate(-206.224,-362.14458)" />
    <path
       d="m 355.5448,436.57846 8.2425,0 -0.26375,0.51712 -8.2375,0 0.25875,-0.51712 z"
       style="fill:#fdedb4;fill-opacity:1;fill-rule:nonzero;stroke:none"
       id="path3094"
       transform="translate(-206.224,-362.14458)" />
    <path
       d="m 355.28605,437.09558 8.2375,0 -0.26375,0.523 -8.2425,0 0.26875,-0.523 z"
       style="fill:#fdedb6;fill-opacity:1;fill-rule:nonzero;stroke:none"
       id="path3096"
       transform="translate(-206.224,-362.14458)" />
    <path
       d="m 355.0173,437.61858 8.2425,0 -0.26375,0.517 -8.2425,0 0.26375,-0.517 z"
       style="fill:#fdedb8;fill-opacity:1;fill-rule:nonzero;stroke:none"
       id="path3098"
       transform="translate(-206.224,-362.14458)" />
    <path
       d="m 354.75355,438.13558 8.2425,0 -0.26375,0.5225 -8.2425,0 0.26375,-0.5225 z"
       style="fill:#fdeebb;fill-opacity:1;fill-rule:nonzero;stroke:none"
       id="path3100"
       transform="translate(-206.224,-362.14458)" />
    <path
       d="m 354.4898,438.65808 8.2425,0 -0.26375,0.51763 -8.2425,0 0.26375,-0.51763 z"
       style="fill:#fdeebb;fill-opacity:1;fill-rule:nonzero;stroke:none"
       id="path3102"
       transform="translate(-206.224,-362.14458)" />
    <path
       d="m 354.22605,439.17571 8.2425,0 -0.26375,0.5175 -8.2425,0 0.26375,-0.5175 z"
       style="fill:#fdeebd;fill-opacity:1;fill-rule:nonzero;stroke:none"
       id="path3104"
       transform="translate(-206.224,-362.14458)" />
    <path
       d="m 353.9623,439.69321 8.2425,0 -0.26375,0.5225 -8.2425,0 0.26375,-0.5225 z"
       style="fill:#fef1c1;fill-opacity:1;fill-rule:nonzero;stroke:none"
       id="path3106"
       transform="translate(-206.224,-362.14458)" />
    <path
       d="m 353.69855,440.21571 8.2425,0 -0.26875,0.51762 -8.2375,0 0.26375,-0.51762 z"
       style="fill:#fef1c2;fill-opacity:1;fill-rule:nonzero;stroke:none"
       id="path3108"
       transform="translate(-206.224,-362.14458)" />
    <path
       d="m 353.4348,440.73333 8.2375,0 -0.26375,0.52238 -8.2375,0 0.26375,-0.52238 z"
       style="fill:#fef1c5;fill-opacity:1;fill-rule:nonzero;stroke:none"
       id="path3110"
       transform="translate(-206.224,-362.14458)" />
    <path
       d="m 353.17105,441.25571 8.2375,0 -0.26375,0.51762 -8.2375,0 0.26375,-0.51762 z"
       style="fill:#fef1c5;fill-opacity:1;fill-rule:nonzero;stroke:none"
       id="path3112"
       transform="translate(-206.224,-362.14458)" />
    <path
       d="m 352.9073,441.77333 8.2375,0 -0.26375,0.51763 -8.24125,0 0.2675,-0.51763 z"
       style="fill:#fef2c8;fill-opacity:1;fill-rule:nonzero;stroke:none"
       id="path3114"
       transform="translate(-206.224,-362.14458)" />
    <path
       d="m 352.6398,442.29096 8.24125,0 -0.26375,0.52237 -8.23625,0 0.25875,-0.52237 z"
       style="fill:#fef2ca;fill-opacity:1;fill-rule:nonzero;stroke:none"
       id="path3116"
       transform="translate(-206.224,-362.14458)" />
    <path
       d="m 352.38105,442.81333 8.23625,0 -0.26375,0.51762 -8.24125,0 0.26875,-0.51762 z"
       style="fill:#fef2cd;fill-opacity:1;fill-rule:nonzero;stroke:none"
       id="path3118"
       transform="translate(-206.224,-362.14458)" />
    <path
       d="m 352.1123,443.33095 8.24125,0 -0.26375,0.52251 -8.23625,0 0.25875,-0.52251 z"
       style="fill:#fef4cf;fill-opacity:1;fill-rule:nonzero;stroke:none"
       id="path3120"
       transform="translate(-206.224,-362.14458)" />
    <path
       d="m 351.85355,443.85346 8.23625,0 -0.2625,0.5175 -8.2425,0 0.26875,-0.5175 z"
       style="fill:#fef4cf;fill-opacity:1;fill-rule:nonzero;stroke:none"
       id="path3122"
       transform="translate(-206.224,-362.14458)" />
    <path
       d="m 351.5848,444.37096 8.2425,0 -0.26375,0.51762 -8.2425,0 0.26375,-0.51762 z"
       style="fill:#fef4d2;fill-opacity:1;fill-rule:nonzero;stroke:none"
       id="path3124"
       transform="translate(-206.224,-362.14458)" />
    <path
       d="m 351.32105,444.88858 8.2425,0 -0.26375,0.5225 -8.24263,0 0.26388,-0.5225 z"
       style="fill:#fef4d3;fill-opacity:1;fill-rule:nonzero;stroke:none"
       id="path3126"
       transform="translate(-206.224,-362.14458)" />
    <path
       d="m 351.05717,445.41108 8.24263,0 -0.26375,0.517 -8.2425,0 0.26362,-0.517 z"
       style="fill:#fef4d6;fill-opacity:1;fill-rule:nonzero;stroke:none"
       id="path3128"
       transform="translate(-206.224,-362.14458)" />
    <path
       d="m 350.79355,445.92808 8.2425,0 -0.26375,0.51763 -8.24238,0 0.26363,-0.51763 z"
       style="fill:#fff8d8;fill-opacity:1;fill-rule:nonzero;stroke:none"
       id="path3130"
       transform="translate(-206.224,-362.14458)" />
    <path
       d="m 350.52992,446.44571 8.24238,0 -0.26875,0.5225 -8.23738,0 0.26375,-0.5225 z"
       style="fill:#fff8da;fill-opacity:1;fill-rule:nonzero;stroke:none"
       id="path3132"
       transform="translate(-206.224,-362.14458)" />
    <path
       d="m 350.26617,446.96821 8.23738,0 -0.25875,0.5175 -8.24225,0 0.26362,-0.5175 z"
       style="fill:#fff8dd;fill-opacity:1;fill-rule:nonzero;stroke:none"
       id="path3134"
       transform="translate(-206.224,-362.14458)" />
    <path
       d="m 350.00255,447.48571 8.24225,0 -0.26875,0.5225 -8.23762,0 0.26412,-0.5225 z"
       style="fill:#fff8e0;fill-opacity:1;fill-rule:nonzero;stroke:none"
       id="path3136"
       transform="translate(-206.224,-362.14458)" />
    <path
       d="m 349.73842,448.00821 8.23763,0 -0.25875,0.51762 -8.24263,0 0.26376,-0.51762 z"
       style="fill:#fff8e3;fill-opacity:1;fill-rule:nonzero;stroke:none"
       id="path3138"
       transform="translate(-206.224,-362.14458)" />
    <path
       d="m 349.47467,448.52583 8.24263,0 -0.26875,0.519 -8.2375,0 0.26362,-0.519 z"
       style="fill:#fff8e3;fill-opacity:1;fill-rule:nonzero;stroke:none"
       id="path3140"
       transform="translate(-206.224,-362.14458)" />
    <path
       d="m 349.21105,449.04483 8.2375,0 -0.26375,0.521 -8.2375,0 0.26375,-0.521 z"
       style="fill:#fff8e6;fill-opacity:1;fill-rule:nonzero;stroke:none"
       id="path3142"
       transform="translate(-206.224,-362.14458)" />
    <path
       d="m 348.9473,449.56583 8.2375,0 -0.26375,0.5185 -8.23637,0 0.26262,-0.5185 z"
       style="fill:#fff8e8;fill-opacity:1;fill-rule:nonzero;stroke:none"
       id="path3144"
       transform="translate(-206.224,-362.14458)" />
    <path
       d="m 348.68467,450.08433 8.23638,0 -0.26375,0.523 -8.24125,0 0.26862,-0.523 z"
       style="fill:#fffbed;fill-opacity:1;fill-rule:nonzero;stroke:none"
       id="path3146"
       transform="translate(-206.224,-362.14458)" />
    <path
       d="m 348.41605,450.60733 8.24125,0 -0.26375,0.51713 -8.23625,0 0.25875,-0.51713 z"
       style="fill:#fffbef;fill-opacity:1;fill-rule:nonzero;stroke:none"
       id="path3148"
       transform="translate(-206.224,-362.14458)" />
    <path
       d="m 348.1573,451.12446 8.23625,0 -0.2625,0.5175 -8.24225,0 0.2685,-0.5175 z"
       style="fill:#fffbef;fill-opacity:1;fill-rule:nonzero;stroke:none"
       id="path3150"
       transform="translate(-206.224,-362.14458)" />
    <path
       d="m 347.8888,451.64196 8.24225,0 -0.26375,0.5225 -8.24275,0 0.26425,-0.5225 z"
       style="fill:#fffbf3;fill-opacity:1;fill-rule:nonzero;stroke:none"
       id="path3152"
       transform="translate(-206.224,-362.14458)" />
    <path
       d="m 347.62455,452.16446 8.24275,0 -0.26875,0.51762 -8.23763,0 0.26363,-0.51762 z"
       style="fill:#fffbf5;fill-opacity:1;fill-rule:nonzero;stroke:none"
       id="path3154"
       transform="translate(-206.224,-362.14458)" />
    <path
       d="m 347.36093,452.68208 8.23762,0 -0.25875,0.52238 -8.2425,0 0.26363,-0.52238 z"
       style="fill:#fffffa;fill-opacity:1;fill-rule:nonzero;stroke:none"
       id="path3156"
       transform="translate(-206.224,-362.14458)" />
    <path
       d="m 347.0973,453.20446 8.2425,0 -0.26875,0.51762 -8.2375,0 0.26375,-0.51762 z"
       style="fill:#fffffa;fill-opacity:1;fill-rule:nonzero;stroke:none"
       id="path3158"
       transform="translate(-206.224,-362.14458)" />
    <path
       d="m 346.83355,453.72208 8.2375,0 -0.25875,0.5175 -8.24237,0 0.26362,-0.5175 z"
       style="fill:#fffffc;fill-opacity:1;fill-rule:nonzero;stroke:none"
       id="path3160"
       transform="translate(-206.224,-362.14458)" />
    <path
       d="m 346.56992,454.23958 8.24238,0 -0.26875,0.5225 -8.23725,0 0.26362,-0.5225 z"
       style="fill:#ffffff;fill-opacity:1;fill-rule:nonzero;stroke:none"
       id="path3162"
       transform="translate(-206.224,-362.14458)" />
    <path
       d="m 346.3063,454.76208 8.23725,0 -8.57375,16.875 -6.38225,-3.66262 6.71875,-13.21238 z"
       style="fill:#ffffff;fill-opacity:1;fill-rule:nonzero;stroke:none"
       id="path3164"
       transform="translate(-206.224,-362.14458)" />
    <path
       d="m 387.66855,472.28608 8.2425,0 -8.97,17.64594 -12.54875,8.47754 13.27625,-26.12348 z"
       style="fill:#f8c300;fill-opacity:1;fill-rule:nonzero;stroke:none"
       id="path3166"
       transform="translate(-206.224,-362.14458)" />
    <path
       d="m 395.91105,472.28608 -8.2425,0 0.26375,-0.51763 8.2425,0 -0.26375,0.51763 z"
       style="fill:#f8c300;fill-opacity:1;fill-rule:nonzero;stroke:none"
       id="path3168"
       transform="translate(-206.224,-362.14458)" />
    <path
       d="m 396.1748,471.76845 -8.2425,0 0.26875,-0.51762 8.2375,0 -0.26375,0.51762 z"
       style="fill:#f8c300;fill-opacity:1;fill-rule:nonzero;stroke:none"
       id="path3170"
       transform="translate(-206.224,-362.14458)" />
    <path
       d="m 396.43855,471.25083 -8.2375,0 0.25875,-0.52237 8.2425,0 -0.26375,0.52237 z"
       style="fill:#f8c300;fill-opacity:1;fill-rule:nonzero;stroke:none"
       id="path3172"
       transform="translate(-206.224,-362.14458)" />
    <path
       d="m 396.7023,470.72846 -8.2425,0 0.26875,-0.51763 8.23625,0 -0.2625,0.51763 z"
       style="fill:#f8c300;fill-opacity:1;fill-rule:nonzero;stroke:none"
       id="path3174"
       transform="translate(-206.224,-362.14458)" />
    <path
       d="m 396.9648,470.21083 -8.23625,0 0.25875,-0.5225 8.24125,0 -0.26375,0.5225 z"
       style="fill:#f9c600;fill-opacity:1;fill-rule:nonzero;stroke:none"
       id="path3176"
       transform="translate(-206.224,-362.14458)" />
    <path
       d="m 397.22855,469.68833 -8.24125,0 0.26875,-0.5175 8.23625,0 -0.26375,0.5175 z"
       style="fill:#f9c600;fill-opacity:1;fill-rule:nonzero;stroke:none"
       id="path3178"
       transform="translate(-206.224,-362.14458)" />
    <path
       d="m 397.4923,469.17083 -8.23625,0 0.25875,-0.51762 8.24125,0 -0.26375,0.51762 z"
       style="fill:#f9c600;fill-opacity:1;fill-rule:nonzero;stroke:none"
       id="path3180"
       transform="translate(-206.224,-362.14458)" />
    <path
       d="m 397.75605,468.65321 -8.24125,0 0.2675,-0.5225 8.2375,0 -0.26375,0.5225 z"
       style="fill:#f9c600;fill-opacity:1;fill-rule:nonzero;stroke:none"
       id="path3182"
       transform="translate(-206.224,-362.14458)" />
    <path
       d="m 398.0198,468.13071 -8.2375,0 0.26375,-0.5175 8.2425,0 -0.26875,0.5175 z"
       style="fill:#f9c600;fill-opacity:1;fill-rule:nonzero;stroke:none"
       id="path3184"
       transform="translate(-206.224,-362.14458)" />
    <path
       d="m 398.28855,467.61321 -8.2425,0 0.26375,-0.5225 8.2375,0 -0.25875,0.5225 z"
       style="fill:#f9c800;fill-opacity:1;fill-rule:nonzero;stroke:none"
       id="path3186"
       transform="translate(-206.224,-362.14458)" />
    <path
       d="m 398.5473,467.09071 -8.2375,0 0.26375,-0.51763 8.2425,0 -0.26875,0.51763 z"
       style="fill:#f9c800;fill-opacity:1;fill-rule:nonzero;stroke:none"
       id="path3188"
       transform="translate(-206.224,-362.14458)" />
    <path
       d="m 398.81605,466.57308 -8.2425,0 0.26375,-0.517 8.2375,0 -0.25875,0.517 z"
       style="fill:#f9c80f;fill-opacity:1;fill-rule:nonzero;stroke:none"
       id="path3190"
       transform="translate(-206.224,-362.14458)" />
    <path
       d="m 399.0748,466.05608 -8.2375,0 0.26375,-0.523 8.2425,0 -0.26875,0.523 z"
       style="fill:#f9c80f;fill-opacity:1;fill-rule:nonzero;stroke:none"
       id="path3192"
       transform="translate(-206.224,-362.14458)" />
    <path
       d="m 399.34355,465.53308 -8.2425,0 0.26375,-0.51713 8.2375,0 -0.25875,0.51713 z"
       style="fill:#f9c818;fill-opacity:1;fill-rule:nonzero;stroke:none"
       id="path3194"
       transform="translate(-206.224,-362.14458)" />
    <path
       d="m 399.6023,465.01595 -8.2375,0 0.26375,-0.52237 8.2425,0 -0.26875,0.52237 z"
       style="fill:#f9c822;fill-opacity:1;fill-rule:nonzero;stroke:none"
       id="path3196"
       transform="translate(-206.224,-362.14458)" />
    <path
       d="m 399.87105,464.49358 -8.2425,0 0.26375,-0.51762 8.2425,0 -0.26375,0.51762 z"
       style="fill:#f9c82a;fill-opacity:1;fill-rule:nonzero;stroke:none"
       id="path3198"
       transform="translate(-206.224,-362.14458)" />
    <path
       d="m 400.1348,463.97596 -8.2425,0 0.26375,-0.51763 8.2425,0 -0.26375,0.51763 z"
       style="fill:#f9c82e;fill-opacity:1;fill-rule:nonzero;stroke:none"
       id="path3200"
       transform="translate(-206.224,-362.14458)" />
    <path
       d="m 400.39855,463.45833 -8.2425,0 0.26875,-0.52237 8.2375,0 -0.26375,0.52237 z"
       style="fill:#f9cb2d;fill-opacity:1;fill-rule:nonzero;stroke:none"
       id="path3202"
       transform="translate(-206.224,-362.14458)" />
    <path
       d="m 400.6623,462.93596 -8.2375,0 0.25875,-0.51763 8.24125,0 -0.2625,0.51763 z"
       style="fill:#f9cb33;fill-opacity:1;fill-rule:nonzero;stroke:none"
       id="path3204"
       transform="translate(-206.224,-362.14458)" />
    <path
       d="m 400.9248,462.41833 -8.24125,0 0.26875,-0.5225 8.23625,0 -0.26375,0.5225 z"
       style="fill:#f9cb36;fill-opacity:1;fill-rule:nonzero;stroke:none"
       id="path3206"
       transform="translate(-206.224,-362.14458)" />
    <path
       d="m 401.18855,461.89583 -8.23625,0 0.25875,-0.5175 8.24125,0 -0.26375,0.5175 z"
       style="fill:#f9cb3b;fill-opacity:1;fill-rule:nonzero;stroke:none"
       id="path3208"
       transform="translate(-206.224,-362.14458)" />
    <path
       d="m 401.4523,461.37833 -8.24125,0 0.2675,-0.51762 8.2375,0 -0.26375,0.51762 z"
       style="fill:#f9cb3b;fill-opacity:1;fill-rule:nonzero;stroke:none"
       id="path3210"
       transform="translate(-206.224,-362.14458)" />
    <path
       d="m 401.71605,460.86071 -8.2375,0 0.25875,-0.52238 8.2425,0 -0.26375,0.52238 z"
       style="fill:#f9cd3d;fill-opacity:1;fill-rule:nonzero;stroke:none"
       id="path3212"
       transform="translate(-206.224,-362.14458)" />
    <path
       d="m 401.9798,460.33833 -8.2425,0 0.26875,-0.51762 8.2425,0 -0.26875,0.51762 z"
       style="fill:#f9cd41;fill-opacity:1;fill-rule:nonzero;stroke:none"
       id="path3214"
       transform="translate(-206.224,-362.14458)" />
    <path
       d="m 402.24855,459.82071 -8.2425,0 0.26375,-0.51763 8.2425,0 -0.26375,0.51763 z"
       style="fill:#f9cd43;fill-opacity:1;fill-rule:nonzero;stroke:none"
       id="path3216"
       transform="translate(-206.224,-362.14458)" />
    <path
       d="m 402.5123,459.30308 -8.2425,0 0.26375,-0.52237 8.2425,0 -0.26375,0.52237 z"
       style="fill:#f9cd47;fill-opacity:1;fill-rule:nonzero;stroke:none"
       id="path3218"
       transform="translate(-206.224,-362.14458)" />
    <path
       d="m 402.77605,458.78071 -8.2425,0 0.26375,-0.51713 8.2425,0 -0.26375,0.51713 z"
       style="fill:#f9cd47;fill-opacity:1;fill-rule:nonzero;stroke:none"
       id="path3220"
       transform="translate(-206.224,-362.14458)" />
    <path
       d="m 403.0398,458.26358 -8.2425,0 0.26375,-0.523 8.2425,0 -0.26375,0.523 z"
       style="fill:#f9cd4b;fill-opacity:1;fill-rule:nonzero;stroke:none"
       id="path3222"
       transform="translate(-206.224,-362.14458)" />
    <path
       d="m 403.30355,457.74058 -8.2425,0 0.26875,-0.5185 8.2375,0 -0.26375,0.5185 z"
       style="fill:#f9cd4d;fill-opacity:1;fill-rule:nonzero;stroke:none"
       id="path3224"
       transform="translate(-206.224,-362.14458)" />
    <path
       d="m 403.5673,457.22208 -8.2375,0 0.25875,-0.51762 8.2425,0 -0.26375,0.51762 z"
       style="fill:#f9d050;fill-opacity:1;fill-rule:nonzero;stroke:none"
       id="path3226"
       transform="translate(-206.224,-362.14458)" />
    <path
       d="m 403.83105,456.70446 -8.2425,0 0.26875,-0.52238 8.2375,0 -0.26375,0.52238 z"
       style="fill:#f9d052;fill-opacity:1;fill-rule:nonzero;stroke:none"
       id="path3228"
       transform="translate(-206.224,-362.14458)" />
    <path
       d="m 404.0948,456.18208 -8.2375,0 0.25875,-0.51762 8.2425,0 -0.26375,0.51762 z"
       style="fill:#f9d052;fill-opacity:1;fill-rule:nonzero;stroke:none"
       id="path3230"
       transform="translate(-206.224,-362.14458)" />
    <path
       d="m 404.35855,455.66446 -8.2425,0 0.26875,-0.5225 8.2375,0 -0.26375,0.5225 z"
       style="fill:#f9d055;fill-opacity:1;fill-rule:nonzero;stroke:none"
       id="path3232"
       transform="translate(-206.224,-362.14458)" />
    <path
       d="m 404.6223,455.14196 -8.2375,0 0.26375,-0.5175 8.23625,0 -0.2625,0.5175 z"
       style="fill:#f9d057;fill-opacity:1;fill-rule:nonzero;stroke:none"
       id="path3234"
       transform="translate(-206.224,-362.14458)" />
    <path
       d="m 404.8848,454.62446 -8.23625,0 0.26375,-0.51713 8.23625,0 -0.26375,0.51713 z"
       style="fill:#f9d059;fill-opacity:1;fill-rule:nonzero;stroke:none"
       id="path3236"
       transform="translate(-206.224,-362.14458)" />
    <path
       d="m 405.14855,454.10733 -8.23625,0 0.2625,-0.523 8.2425,0 -0.26875,0.523 z"
       style="fill:#f9d059;fill-opacity:1;fill-rule:nonzero;stroke:none"
       id="path3238"
       transform="translate(-206.224,-362.14458)" />
    <path
       d="m 405.4173,453.58433 -8.2425,0 0.26375,-0.517 8.2375,0 -0.25875,0.517 z"
       style="fill:#f9d05b;fill-opacity:1;fill-rule:nonzero;stroke:none"
       id="path3240"
       transform="translate(-206.224,-362.14458)" />
    <path
       d="m 405.67605,453.06733 -8.2375,0 0.26375,-0.5225 8.2425,0 -0.26875,0.5225 z"
       style="fill:#f9d25e;fill-opacity:1;fill-rule:nonzero;stroke:none"
       id="path3242"
       transform="translate(-206.224,-362.14458)" />
    <path
       d="m 405.9448,452.54483 -8.2425,0 0.26375,-0.51762 8.2375,0 -0.25875,0.51762 z"
       style="fill:#f9d25f;fill-opacity:1;fill-rule:nonzero;stroke:none"
       id="path3244"
       transform="translate(-206.224,-362.14458)" />
    <path
       d="m 406.20355,452.02721 -8.2375,0 0.26375,-0.5175 8.2425,0 -0.26875,0.5175 z"
       style="fill:#f9d262;fill-opacity:1;fill-rule:nonzero;stroke:none"
       id="path3246"
       transform="translate(-206.224,-362.14458)" />
    <path
       d="m 406.4723,451.50971 -8.2425,0 0.26375,-0.52251 8.2425,0 -0.26375,0.52251 z"
       style="fill:#f9d262;fill-opacity:1;fill-rule:nonzero;stroke:none"
       id="path3248"
       transform="translate(-206.224,-362.14458)" />
    <path
       d="m 406.73605,450.9872 -8.2425,0 0.26375,-0.51762 8.2425,0 -0.26375,0.51762 z"
       style="fill:#f9d264;fill-opacity:1;fill-rule:nonzero;stroke:none"
       id="path3250"
       transform="translate(-206.224,-362.14458)" />
    <path
       d="m 406.9998,450.46958 -8.2425,0 0.26375,-0.5175 8.2425,0 -0.26375,0.5175 z"
       style="fill:#fad566;fill-opacity:1;fill-rule:nonzero;stroke:none"
       id="path3252"
       transform="translate(-206.224,-362.14458)" />
    <path
       d="m 407.26355,449.95208 -8.2425,0 0.26375,-0.5225 8.2425,0 -0.26375,0.5225 z"
       style="fill:#fad568;fill-opacity:1;fill-rule:nonzero;stroke:none"
       id="path3254"
       transform="translate(-206.224,-362.14458)" />
    <path
       d="m 407.5273,449.42958 -8.2425,0 0.26875,-0.51762 8.2375,0 -0.26375,0.51762 z"
       style="fill:#fad569;fill-opacity:1;fill-rule:nonzero;stroke:none"
       id="path3256"
       transform="translate(-206.224,-362.14458)" />
    <path
       d="m 407.79105,448.91196 -8.2375,0 0.25875,-0.52238 8.2425,0 -0.26375,0.52238 z"
       style="fill:#fad569;fill-opacity:1;fill-rule:nonzero;stroke:none"
       id="path3258"
       transform="translate(-206.224,-362.14458)" />
    <path
       d="m 408.0548,448.38958 -8.2425,0 0.26875,-0.51762 8.2375,0 -0.26375,0.51762 z"
       style="fill:#fad56b;fill-opacity:1;fill-rule:nonzero;stroke:none"
       id="path3260"
       transform="translate(-206.224,-362.14458)" />
    <path
       d="m 408.31855,447.87196 -8.2375,0 0.25875,-0.51763 8.24125,0 -0.2625,0.51763 z"
       style="fill:#fad56d;fill-opacity:1;fill-rule:nonzero;stroke:none"
       id="path3262"
       transform="translate(-206.224,-362.14458)" />
    <path
       d="m 408.58105,447.35433 -8.24125,0 0.26875,-0.52237 8.24125,0 -0.26875,0.52237 z"
       style="fill:#f9d56f;fill-opacity:1;fill-rule:nonzero;stroke:none"
       id="path3264"
       transform="translate(-206.224,-362.14458)" />
    <path
       d="m 408.8498,446.83196 -8.24125,0 0.26375,-0.51763 8.23625,0 -0.25875,0.51763 z"
       style="fill:#fad76f;fill-opacity:1;fill-rule:nonzero;stroke:none"
       id="path3266"
       transform="translate(-206.224,-362.14458)" />
    <path
       d="m 409.10855,446.31433 -8.23625,0 0.2625,-0.5225 8.2425,0 -0.26875,0.5225 z"
       style="fill:#fad770;fill-opacity:1;fill-rule:nonzero;stroke:none"
       id="path3268"
       transform="translate(-206.224,-362.14458)" />
    <path
       d="m 409.3773,445.79183 -8.2425,0 0.26375,-0.517 8.2425,0 -0.26375,0.517 z"
       style="fill:#fad772;fill-opacity:1;fill-rule:nonzero;stroke:none"
       id="path3270"
       transform="translate(-206.224,-362.14458)" />
    <path
       d="m 409.64105,445.27483 -8.2425,0 0.26375,-0.51762 8.2425,0 -0.26375,0.51762 z"
       style="fill:#fad775;fill-opacity:1;fill-rule:nonzero;stroke:none"
       id="path3272"
       transform="translate(-206.224,-362.14458)" />
    <path
       d="m 409.9048,444.75721 -8.2425,0 0.26875,-0.52251 8.2375,0 -0.26375,0.52251 z"
       style="fill:#fad776;fill-opacity:1;fill-rule:nonzero;stroke:none"
       id="path3274"
       transform="translate(-206.224,-362.14458)" />
    <path
       d="m 410.16855,444.2347 -8.2375,0 0.25875,-0.51749 8.2425,0 -0.26375,0.51749 z"
       style="fill:#fadb76;fill-opacity:1;fill-rule:nonzero;stroke:none"
       id="path3276"
       transform="translate(-206.224,-362.14458)" />
    <path
       d="m 410.4323,443.71721 -8.2425,0 0.26875,-0.5225 8.2375,0 -0.26375,0.5225 z"
       style="fill:#fadb79;fill-opacity:1;fill-rule:nonzero;stroke:none"
       id="path3278"
       transform="translate(-206.224,-362.14458)" />
    <path
       d="m 410.69605,443.19471 -8.2375,0 0.25875,-0.51763 8.2425,0 -0.26375,0.51763 z"
       style="fill:#fadb7a;fill-opacity:1;fill-rule:nonzero;stroke:none"
       id="path3280"
       transform="translate(-206.224,-362.14458)" />
    <path
       d="m 410.9598,442.67708 -8.2425,0 0.26875,-0.5175 8.2375,0 -0.26375,0.5175 z"
       style="fill:#fadb7c;fill-opacity:1;fill-rule:nonzero;stroke:none"
       id="path3282"
       transform="translate(-206.224,-362.14458)" />
    <path
       d="m 411.22355,442.15958 -8.2375,0 0.25875,-0.5225 8.2425,0 -0.26375,0.5225 z"
       style="fill:#fadb7c;fill-opacity:1;fill-rule:nonzero;stroke:none"
       id="path3284"
       transform="translate(-206.224,-362.14458)" />
    <path
       d="m 411.4873,441.63708 -8.2425,0 0.26875,-0.5175 8.2375,0 -0.26375,0.5175 z"
       style="fill:#fadb7d;fill-opacity:1;fill-rule:nonzero;stroke:none"
       id="path3286"
       transform="translate(-206.224,-362.14458)" />
    <path
       d="m 411.75105,441.11958 -8.2375,0 0.26375,-0.5225 8.2375,0 -0.26375,0.5225 z"
       style="fill:#fadb7f;fill-opacity:1;fill-rule:nonzero;stroke:none"
       id="path3288"
       transform="translate(-206.224,-362.14458)" />
    <path
       d="m 412.0148,440.59708 -8.2375,0 0.26375,-0.51762 8.23625,0 -0.2625,0.51762 z"
       style="fill:#fadb81;fill-opacity:1;fill-rule:nonzero;stroke:none"
       id="path3290"
       transform="translate(-206.224,-362.14458)" />
    <path
       d="m 412.2773,440.07946 -8.23625,0 0.26375,-0.5175 8.24125,0 -0.26875,0.5175 z"
       style="fill:#fadd84;fill-opacity:1;fill-rule:nonzero;stroke:none"
       id="path3292"
       transform="translate(-206.224,-362.14458)" />
    <path
       d="m 412.54605,439.56196 -8.24125,0 0.26375,-0.5225 8.23625,0 -0.25875,0.5225 z"
       style="fill:#fadd84;fill-opacity:1;fill-rule:nonzero;stroke:none"
       id="path3294"
       transform="translate(-206.224,-362.14458)" />
    <path
       d="m 412.8048,439.03946 -8.23625,0 0.2625,-0.51763 8.2425,0 -0.26875,0.51763 z"
       style="fill:#fadd87;fill-opacity:1;fill-rule:nonzero;stroke:none"
       id="path3296"
       transform="translate(-206.224,-362.14458)" />
    <path
       d="m 413.07355,438.52183 -8.2425,0 0.26375,-0.5185 8.2375,0 -0.25875,0.5185 z"
       style="fill:#fadd87;fill-opacity:1;fill-rule:nonzero;stroke:none"
       id="path3298"
       transform="translate(-206.224,-362.14458)" />
    <path
       d="m 413.3323,438.00333 -8.2375,0 0.26375,-0.521 8.2425,0 -0.26875,0.521 z"
       style="fill:#fbe18a;fill-opacity:1;fill-rule:nonzero;stroke:none"
       id="path3300"
       transform="translate(-206.224,-362.14458)" />
    <path
       d="m 413.60105,437.48233 -8.2425,0 0.26375,-0.519 8.2425,0 -0.26375,0.519 z"
       style="fill:#fbe18b;fill-opacity:1;fill-rule:nonzero;stroke:none"
       id="path3302"
       transform="translate(-206.224,-362.14458)" />
    <path
       d="m 413.8648,436.96333 -8.2425,0 0.26375,-0.5225 8.2425,0 -0.26375,0.5225 z"
       style="fill:#fbe18d;fill-opacity:1;fill-rule:nonzero;stroke:none"
       id="path3304"
       transform="translate(-206.224,-362.14458)" />
    <path
       d="m 414.12855,436.44083 -8.2425,0 0.26875,-0.51762 8.2375,0 -0.26375,0.51762 z"
       style="fill:#fbe18f;fill-opacity:1;fill-rule:nonzero;stroke:none"
       id="path3306"
       transform="translate(-206.224,-362.14458)" />
    <path
       d="m 414.3923,435.92321 -8.2375,0 0.25875,-0.51751 8.2425,0 -0.26375,0.51751 z"
       style="fill:#fbe18f;fill-opacity:1;fill-rule:nonzero;stroke:none"
       id="path3308"
       transform="translate(-206.224,-362.14458)" />
    <path
       d="m 414.65605,435.4057 -8.2425,0 0.26875,-0.52249 8.2375,0 -0.26375,0.52249 z"
       style="fill:#fbe191;fill-opacity:1;fill-rule:nonzero;stroke:none"
       id="path3310"
       transform="translate(-206.224,-362.14458)" />
    <path
       d="m 414.9198,434.88321 -8.2375,0 0.25875,-0.51763 8.2425,0 -0.26375,0.51763 z"
       style="fill:#fbe192;fill-opacity:1;fill-rule:nonzero;stroke:none"
       id="path3312"
       transform="translate(-206.224,-362.14458)" />
    <path
       d="m 415.18355,434.36558 -8.2425,0 0.26875,-0.52237 8.2425,0 -0.26875,0.52237 z"
       style="fill:#fbe194;fill-opacity:1;fill-rule:nonzero;stroke:none"
       id="path3314"
       transform="translate(-206.224,-362.14458)" />
    <path
       d="m 415.4523,433.8432 -8.2425,0 0.25875,-0.51712 8.2425,0 -0.25875,0.51712 z"
       style="fill:#fbe495;fill-opacity:1;fill-rule:nonzero;stroke:none"
       id="path3316"
       transform="translate(-206.224,-362.14458)" />
    <path
       d="m 415.71105,433.32608 -8.2425,0 0.26875,-0.51762 8.24125,0 -0.2675,0.51762 z"
       style="fill:#fbe496;fill-opacity:1;fill-rule:nonzero;stroke:none"
       id="path3318"
       transform="translate(-206.224,-362.14458)" />
    <path
       d="m 415.97855,432.80846 -8.24125,0 0.26375,-0.52238 8.23625,0 -0.25875,0.52238 z"
       style="fill:#fbe498;fill-opacity:1;fill-rule:nonzero;stroke:none"
       id="path3320"
       transform="translate(-206.224,-362.14458)" />
    <path
       d="m 416.2373,432.28608 -8.23625,0 0.26375,-0.51763 8.24125,0 -0.26875,0.51763 z"
       style="fill:#fbe49b;fill-opacity:1;fill-rule:nonzero;stroke:none"
       id="path3322"
       transform="translate(-206.224,-362.14458)" />
    <path
       d="m 416.50605,431.76845 -8.24125,0 0.2625,-0.51762 8.2425,0 -0.26375,0.51762 z"
       style="fill:#fbe49c;fill-opacity:1;fill-rule:nonzero;stroke:none"
       id="path3324"
       transform="translate(-206.224,-362.14458)" />
    <path
       d="m 416.7698,431.25083 -8.2425,0 0.26375,-0.52237 8.2425,0 -0.26375,0.52237 z"
       style="fill:#fce79d;fill-opacity:1;fill-rule:nonzero;stroke:none"
       id="path3326"
       transform="translate(-206.224,-362.14458)" />
    <path
       d="m 417.03355,430.72846 -8.2425,0 0.26375,-0.51763 8.2425,0 -0.26375,0.51763 z"
       style="fill:#fce79f;fill-opacity:1;fill-rule:nonzero;stroke:none"
       id="path3328"
       transform="translate(-206.224,-362.14458)" />
    <path
       d="m 417.2973,430.21083 -8.2425,0 0.26375,-0.5225 8.2425,0 -0.26375,0.5225 z"
       style="fill:#fce7a1;fill-opacity:1;fill-rule:nonzero;stroke:none"
       id="path3330"
       transform="translate(-206.224,-362.14458)" />
    <path
       d="m 417.56105,429.68833 -8.2425,0 0.26875,-0.5175 8.2375,0 -0.26375,0.5175 z"
       style="fill:#fce7a3;fill-opacity:1;fill-rule:nonzero;stroke:none"
       id="path3332"
       transform="translate(-206.224,-362.14458)" />
    <path
       d="m 417.8248,429.17083 -8.2375,0 0.25875,-0.51762 8.2425,0 -0.26375,0.51762 z"
       style="fill:#fce7a3;fill-opacity:1;fill-rule:nonzero;stroke:none"
       id="path3334"
       transform="translate(-206.224,-362.14458)" />
    <path
       d="m 418.08855,428.65321 -8.2425,0 0.26875,-0.5225 8.2375,0 -0.26375,0.5225 z"
       style="fill:#fce7a4;fill-opacity:1;fill-rule:nonzero;stroke:none"
       id="path3336"
       transform="translate(-206.224,-362.14458)" />
    <path
       d="m 418.3523,428.13071 -8.2375,0 0.26375,-0.5175 8.2375,0 -0.26375,0.5175 z"
       style="fill:#fce7a7;fill-opacity:1;fill-rule:nonzero;stroke:none"
       id="path3338"
       transform="translate(-206.224,-362.14458)" />
    <path
       d="m 418.61605,427.61321 -8.2375,0 0.26375,-0.5225 8.2375,0 -0.26375,0.5225 z"
       style="fill:#fceba9;fill-opacity:1;fill-rule:nonzero;stroke:none"
       id="path3340"
       transform="translate(-206.224,-362.14458)" />
    <path
       d="m 418.8798,427.09071 -8.2375,0 0.26375,-0.51763 8.2425,0 -0.26875,0.51763 z"
       style="fill:#fcebab;fill-opacity:1;fill-rule:nonzero;stroke:none"
       id="path3342"
       transform="translate(-206.224,-362.14458)" />
    <path
       d="m 419.14855,426.57308 -8.2425,0 0.26375,-0.517 8.2375,0 -0.25875,0.517 z"
       style="fill:#fcebab;fill-opacity:1;fill-rule:nonzero;stroke:none"
       id="path3344"
       transform="translate(-206.224,-362.14458)" />
    <path
       d="m 419.4073,426.05608 -8.2375,0 0.26375,-0.523 8.24125,0 -0.2675,0.523 z"
       style="fill:#fcebad;fill-opacity:1;fill-rule:nonzero;stroke:none"
       id="path3346"
       transform="translate(-206.224,-362.14458)" />
    <path
       d="m 419.6748,425.53308 -8.24125,0 0.26375,-0.51712 8.2375,0 -0.26,0.51712 z"
       style="fill:#fdebaf;fill-opacity:1;fill-rule:nonzero;stroke:none"
       id="path3348"
       transform="translate(-206.224,-362.14458)" />
    <path
       d="m 419.9348,425.01596 -8.2375,0 0.26375,-0.52238 8.24125,0 -0.2675,0.52238 z"
       style="fill:#fdedb2;fill-opacity:1;fill-rule:nonzero;stroke:none"
       id="path3350"
       transform="translate(-206.224,-362.14458)" />
    <path
       d="m 420.2023,424.49358 -8.24125,0 0.26375,-0.51762 8.23625,0 -0.25875,0.51762 z"
       style="fill:#fdedb4;fill-opacity:1;fill-rule:nonzero;stroke:none"
       id="path3352"
       transform="translate(-206.224,-362.14458)" />
    <path
       d="m 420.46105,423.97596 -8.23625,0 0.2625,-0.51763 8.2425,0 -0.26875,0.51763 z"
       style="fill:#fdedb4;fill-opacity:1;fill-rule:nonzero;stroke:none"
       id="path3354"
       transform="translate(-206.224,-362.14458)" />
    <path
       d="m 420.7298,423.45833 -8.2425,0 0.26375,-0.52237 8.2425,0 -0.26375,0.52237 z"
       style="fill:#fdedb6;fill-opacity:1;fill-rule:nonzero;stroke:none"
       id="path3356"
       transform="translate(-206.224,-362.14458)" />
    <path
       d="m 420.99355,422.93596 -8.2425,0 0.26375,-0.51763 8.2425,0 -0.26375,0.51763 z"
       style="fill:#fdedb8;fill-opacity:1;fill-rule:nonzero;stroke:none"
       id="path3358"
       transform="translate(-206.224,-362.14458)" />
    <path
       d="m 421.2573,422.41833 -8.2425,0 0.26875,-0.5225 8.2375,0 -0.26375,0.5225 z"
       style="fill:#fdeebb;fill-opacity:1;fill-rule:nonzero;stroke:none"
       id="path3360"
       transform="translate(-206.224,-362.14458)" />
    <path
       d="m 421.52105,421.89583 -8.2375,0 0.25875,-0.5175 8.2425,0 -0.26375,0.5175 z"
       style="fill:#fdeebb;fill-opacity:1;fill-rule:nonzero;stroke:none"
       id="path3362"
       transform="translate(-206.224,-362.14458)" />
    <path
       d="m 421.7848,421.37833 -8.2425,0 0.26875,-0.51762 8.2425,0 -0.26875,0.51762 z"
       style="fill:#fdeebd;fill-opacity:1;fill-rule:nonzero;stroke:none"
       id="path3364"
       transform="translate(-206.224,-362.14458)" />
    <path
       d="m 422.05355,420.86071 -8.2425,0 0.25875,-0.52238 8.2425,0 -0.25875,0.52238 z"
       style="fill:#fef1c1;fill-opacity:1;fill-rule:nonzero;stroke:none"
       id="path3366"
       transform="translate(-206.224,-362.14458)" />
    <path
       d="m 422.3123,420.33833 -8.2425,0 0.26875,-0.51762 8.2425,0 -0.26875,0.51762 z"
       style="fill:#fef1c2;fill-opacity:1;fill-rule:nonzero;stroke:none"
       id="path3368"
       transform="translate(-206.224,-362.14458)" />
    <path
       d="m 422.58105,419.82071 -8.2425,0 0.25875,-0.51763 8.2425,0 -0.25875,0.51763 z"
       style="fill:#fef1c5;fill-opacity:1;fill-rule:nonzero;stroke:none"
       id="path3370"
       transform="translate(-206.224,-362.14458)" />
    <path
       d="m 422.8398,419.30308 -8.2425,0 0.26875,-0.52237 8.2425,0 -0.26875,0.52237 z"
       style="fill:#fef1c5;fill-opacity:1;fill-rule:nonzero;stroke:none"
       id="path3372"
       transform="translate(-206.224,-362.14458)" />
    <path
       d="m 423.10855,418.7807 -8.2425,0 0.26375,-0.51712 8.2425,0 -0.26375,0.51712 z"
       style="fill:#fef2c8;fill-opacity:1;fill-rule:nonzero;stroke:none"
       id="path3374"
       transform="translate(-206.224,-362.14458)" />
    <path
       d="m 423.3723,418.26358 -8.2425,0 0.26375,-0.523 8.24125,0 -0.2625,0.523 z"
       style="fill:#fef2ca;fill-opacity:1;fill-rule:nonzero;stroke:none"
       id="path3376"
       transform="translate(-206.224,-362.14458)" />
    <path
       d="m 423.6348,417.74058 -8.24125,0 0.26375,-0.5185 8.24125,0 -0.26375,0.5185 z"
       style="fill:#fef2cd;fill-opacity:1;fill-rule:nonzero;stroke:none"
       id="path3378"
       transform="translate(-206.224,-362.14458)" />
    <path
       d="m 423.89855,417.22208 -8.24125,0 0.26375,-0.51762 8.24125,0 -0.26375,0.51762 z"
       style="fill:#fef4cf;fill-opacity:1;fill-rule:nonzero;stroke:none"
       id="path3380"
       transform="translate(-206.224,-362.14458)" />
    <path
       d="m 424.1623,416.70446 -8.24125,0 0.2675,-0.52238 8.2375,0 -0.26375,0.52238 z"
       style="fill:#fef4cf;fill-opacity:1;fill-rule:nonzero;stroke:none"
       id="path3382"
       transform="translate(-206.224,-362.14458)" />
    <path
       d="m 424.42605,416.18208 -8.2375,0 0.25875,-0.51762 8.2425,0 -0.26375,0.51762 z"
       style="fill:#fef4d2;fill-opacity:1;fill-rule:nonzero;stroke:none"
       id="path3384"
       transform="translate(-206.224,-362.14458)" />
    <path
       d="m 424.6898,415.66446 -8.2425,0 0.26875,-0.5225 8.2375,0 -0.26375,0.5225 z"
       style="fill:#fef4d3;fill-opacity:1;fill-rule:nonzero;stroke:none"
       id="path3386"
       transform="translate(-206.224,-362.14458)" />
    <path
       d="m 424.95355,415.14196 -8.2375,0 0.25875,-0.51751 8.2425,0 -0.26375,0.51751 z"
       style="fill:#fef4d6;fill-opacity:1;fill-rule:nonzero;stroke:none"
       id="path3388"
       transform="translate(-206.224,-362.14458)" />
    <path
       d="m 425.2173,414.62445 -8.2425,0 0.26875,-0.51712 8.2375,0 -0.26375,0.51712 z"
       style="fill:#fff8d8;fill-opacity:1;fill-rule:nonzero;stroke:none"
       id="path3390"
       transform="translate(-206.224,-362.14458)" />
    <path
       d="m 425.48105,414.10733 -8.2375,0 0.26375,-0.523 8.2375,0 -0.26375,0.523 z"
       style="fill:#fff8da;fill-opacity:1;fill-rule:nonzero;stroke:none"
       id="path3392"
       transform="translate(-206.224,-362.14458)" />
    <path
       d="m 425.7448,413.58433 -8.2375,0 0.26375,-0.517 8.2375,0 -0.26375,0.517 z"
       style="fill:#fff8dd;fill-opacity:1;fill-rule:nonzero;stroke:none"
       id="path3394"
       transform="translate(-206.224,-362.14458)" />
    <path
       d="m 426.00855,413.06733 -8.2375,0 0.26375,-0.5225 8.2425,0 -0.26875,0.5225 z"
       style="fill:#fff8e0;fill-opacity:1;fill-rule:nonzero;stroke:none"
       id="path3396"
       transform="translate(-206.224,-362.14458)" />
    <path
       d="m 426.2773,412.54483 -8.2425,0 0.26375,-0.51762 8.2375,0 -0.25875,0.51762 z"
       style="fill:#fff8e3;fill-opacity:1;fill-rule:nonzero;stroke:none"
       id="path3398"
       transform="translate(-206.224,-362.14458)" />
    <path
       d="m 426.53605,412.02721 -8.2375,0 0.26375,-0.5175 8.2425,0 -0.26875,0.5175 z"
       style="fill:#fff8e3;fill-opacity:1;fill-rule:nonzero;stroke:none"
       id="path3400"
       transform="translate(-206.224,-362.14458)" />
    <path
       d="m 426.8048,411.50971 -8.2425,0 0.26375,-0.52251 8.2375,0 -0.25875,0.52251 z"
       style="fill:#fff8e6;fill-opacity:1;fill-rule:nonzero;stroke:none"
       id="path3402"
       transform="translate(-206.224,-362.14458)" />
    <path
       d="m 427.06355,410.9872 -8.2375,0 0.26375,-0.51762 8.24125,0 -0.2675,0.51762 z"
       style="fill:#fff8e8;fill-opacity:1;fill-rule:nonzero;stroke:none"
       id="path3404"
       transform="translate(-206.224,-362.14458)" />
    <path
       d="m 427.33105,410.46958 -8.24125,0 0.26375,-0.5175 8.24125,0 -0.26375,0.5175 z"
       style="fill:#fffbed;fill-opacity:1;fill-rule:nonzero;stroke:none"
       id="path3406"
       transform="translate(-206.224,-362.14458)" />
    <path
       d="m 427.5948,409.95208 -8.24125,0 0.26375,-0.5225 8.24125,0 -0.26375,0.5225 z"
       style="fill:#fffbef;fill-opacity:1;fill-rule:nonzero;stroke:none"
       id="path3408"
       transform="translate(-206.224,-362.14458)" />
    <path
       d="m 427.85855,409.42958 -8.24125,0 0.26375,-0.51762 8.24125,0 -0.26375,0.51762 z"
       style="fill:#fffbef;fill-opacity:1;fill-rule:nonzero;stroke:none"
       id="path3410"
       transform="translate(-206.224,-362.14458)" />
    <path
       d="m 428.1223,408.91196 -8.24125,0 0.2625,-0.52238 8.2425,0 -0.26375,0.52238 z"
       style="fill:#fffbf3;fill-opacity:1;fill-rule:nonzero;stroke:none"
       id="path3412"
       transform="translate(-206.224,-362.14458)" />
    <path
       d="m 428.38605,408.38958 -8.2425,0 0.26875,-0.51762 8.2375,0 -0.26375,0.51762 z"
       style="fill:#fffbf5;fill-opacity:1;fill-rule:nonzero;stroke:none"
       id="path3414"
       transform="translate(-206.224,-362.14458)" />
    <path
       d="m 428.6498,407.87196 -8.2375,0 0.25875,-0.51763 8.2425,0 -0.26375,0.51763 z"
       style="fill:#fffffa;fill-opacity:1;fill-rule:nonzero;stroke:none"
       id="path3416"
       transform="translate(-206.224,-362.14458)" />
    <path
       d="m 428.91355,407.35433 -8.2425,0 0.26875,-0.52237 8.2425,0 -0.26875,0.52237 z"
       style="fill:#fffffa;fill-opacity:1;fill-rule:nonzero;stroke:none"
       id="path3418"
       transform="translate(-206.224,-362.14458)" />
    <path
       d="m 429.1823,406.83196 -8.2425,0 0.25875,-0.51763 8.2425,0 -0.25875,0.51763 z"
       style="fill:#fffffc;fill-opacity:1;fill-rule:nonzero;stroke:none"
       id="path3420"
       transform="translate(-206.224,-362.14458)" />
    <path
       d="m 429.44105,406.31433 -8.2425,0 0.26875,-0.5225 8.2425,0 -0.26875,0.5225 z"
       style="fill:#ffffff;fill-opacity:1;fill-rule:nonzero;stroke:none"
       id="path3422"
       transform="translate(-206.224,-362.14458)" />
    <path
       d="m 429.7098,405.79183 -8.2425,0 8.57875,-16.875 6.3775,3.66263 -6.71375,13.21237 z"
       style="fill:#ffffff;fill-opacity:1;fill-rule:nonzero;stroke:none"
       id="path3424"
       transform="translate(-206.224,-362.14458)" />
  </g>
  <g
     transform="translate(-594.85129,-470.52069)"
     id="g4485">
    <path
       id="path2900-0"
       style="fill:#1f1a17;fill-opacity:1;fill-rule:nonzero;stroke:none"
       d="m 689.97379,571.63795 0,-54.4185 19.4875,0 0,13.79887 c 2.25,-4.84912 4.8575,-8.47175 7.85125,-10.91412 2.9875,-2.42138 6.3375,-3.64251 10.0675,-3.64251 1.94375,0 3.93625,0.34763 5.99625,1.0165 1.61125,0.52738 3.2275,1.23488 4.85875,2.13876 l -10.41,20.48387 c -0.80625,-0.55275 -1.5675,-0.99175 -2.285,-1.31888 -1.28875,-0.5815 -2.57375,-0.87399 -3.8475,-0.87399 -2.4225,0 -4.4825,0.91262 -6.22125,2.74899 -1.73375,1.82125 -3.0425,4.521 -3.95,8.07613 l 0,22.90487 -21.5475,0 z"
       inkscape:connector-curvature="0" />
    <path
       id="path2902-9"
       style="fill:#1f1a17;fill-opacity:1;fill-rule:nonzero;stroke:none"
       d="m 662.91229,571.63795 0,-31.01613 c 0,-2.3525 -0.44875,-4.05225 -1.35738,-5.08737 -0.91262,-1.045 -2.38725,-1.5625 -4.43362,-1.5625 -1.855,0 -3.45113,0.44962 -4.80863,1.35737 -1.35787,0.91363 -2.46137,2.28513 -3.30125,4.1265 l 0,32.18213 -19.07275,0 0,-31.01613 c 0,-2.3525 -0.44875,-4.05225 -1.35737,-5.08737 -0.91263,-1.045 -2.38775,-1.5625 -4.43263,-1.5625 -1.856,0 -3.4375,0.44962 -4.76125,1.34225 -1.32375,0.875 -2.456,2.26662 -3.40375,4.14162 l 0,32.18213 -21.13237,0 0,-54.4185 21.13237,0 0,6.49362 c 2.579,-2.59275 5.225,-4.48238 7.92525,-5.66887 2.71488,-1.18613 5.70363,-1.78713 8.98488,-1.78713 3.90137,0 7.13375,0.75725 9.67237,2.271 2.54388,1.50875 4.624,3.88138 6.1865,7.1435 2.73488,-3.26212 5.58588,-5.63475 8.59375,-7.1435 3.00738,-1.51375 6.3725,-2.271 10.0825,-2.271 5.81113,0 10.20988,1.63088 13.18363,4.91213 2.96875,3.26662 4.44875,8.09612 4.44875,14.46774 l 0,36.00101 -22.149,0 z"
       inkscape:connector-curvature="0" />
    <path
       id="path2904-3"
       style="fill:#1f1a17;fill-opacity:1;fill-rule:nonzero;stroke:none"
       d="m 779.05504,566.80932 c -2.64625,2.04488 -5.4975,3.54 -8.54,4.45262 -3.0225,0.92726 -6.58125,1.39113 -10.635,1.39113 -6.7525,0 -11.875,-1.54738 -15.34625,-4.65775 -3.47125,-3.09075 -5.205,-7.666 -5.205,-13.66212 l 0,-20.64888 16.50875,-32.4815 5.03875,0 0,16.01663 17.02625,0 0,13.69625 -17.02625,0 0,16.32237 c 0,2.64738 0.47875,4.50238 1.44125,5.53263 0.94625,1.04987 2.5975,1.5625 4.95125,1.5625 1.855,0 3.77875,-0.32613 5.77125,-0.96138 1.99625,-0.63475 4.00375,-1.59762 6.015,-2.87112 l 0,16.30862 z"
       inkscape:connector-curvature="0" />
    <path
       sodipodi:nodetypes="ccccc"
       inkscape:connector-curvature="0"
       d="m 661.50665,571.72992 47.12805,-92.73118 12.54864,-8.47805 -51.43125,101.20923 z"
       style="fill:url(#grad2-3-1);fill-opacity:1"
       id="path64-6" />
    <path
       sodipodi:nodetypes="ccccc"
       inkscape:connector-curvature="0"
       d="m 755.83754,501.20282 -49.48236,97.35108 -12.54864,8.47805 53.78556,-105.82913 z"
       style="fill:url(#grad4-5-6);fill-opacity:1"
       id="path74-0" />
  </g>
</svg>
